:SAMPLES-PER-SECOND 30
:FULLY-SPECIFIED
:DEGREES
336
root  58.3765 25.755 -25.2658 27.7685 42.5182 23.8223
RightUpLeg  -71.9654 -9.82565 10.9303
RightLeg  65.7935 -7.72006 -14.3497
RightFoot  -15.9881 0.342564 2.81662
RightToes  28.4376 0.00247915 0.275367
Spine  21.6365 0.510202 4.73373
Spine1  36.0312 -3.82887 9.54514
HEad  -11.6914 -29.1467 41.4976
LeftShoulder1  0 -2.42657e-020 -4.95415e-022
LeftArm  -0.39165 -29.3322 -100.234
LeftForeArm  30.5762 -37.2479 -7.70191
LeftHand  -0.274112 -9.29258 3.0041
RightShoulder  0 2.42657e-020 1.07489e-018
RightArm  -54.635 31.7894 70.316
RightForeArm  73.9612 17.8266 3.16524
RightHand  -6.81029 21.3754 -34.6366
LeftUpLeg  -29.5444 1.87815 -13.8798
LeftLeg  91.0261 -0.790786 -16.712
LeftFoot  -2.18722 -0.00259197 -0.135789
LeftToes  -49.1521 2.01279e-006 2.21547e-008
337
root  60.2062 24.9765 -24.1317 21.321 40.7508 18.8991
RightUpLeg  -70.2907 -8.61764 12.626
RightLeg  74.5986 -5.18144 -14.8385
RightFoot  -21.2421 0.652572 3.85657
RightToes  28.751 0.000741748 0.278343
Spine  22.2665 0.308999 6.53153
Spine1  36.4044 -4.15995 11.7273
HEad  -9.19043 -30.4273 41.3881
LeftShoulder1  0 -2.42657e-020 -4.95415e-022
LeftArm  2.35348 -30.0308 -104.159
LeftForeArm  32.8922 -37.0999 -7.65877
LeftHand  -0.347743 -9.42936 3.84741
RightShoulder  0 2.42657e-020 1.07489e-018
RightArm  -74.4234 36.8267 64.5874
RightForeArm  70.2036 7.13874 1.19934
RightHand  -1.55327 17.2346 -9.85663
LeftUpLeg  -30.3184 0.856361 -8.76645
LeftLeg  99.5611 2.2732 -21.004
LeftFoot  -4.4145 0.020901 0.542266
LeftToes  -47.9385 2.01279e-006 2.21547e-008
338
root  61.639 24.9884 -23.2168 18.0117 38.1238 16.6893
RightUpLeg  -67.0905 -10.1518 13.485
RightLeg  77.4495 -3.33335 -11.5726
RightFoot  -24.9955 0.642955 3.27777
RightToes  29.0555 0.00027888 0.27959
Spine  22.307 -1.34546 6.21451
Spine1  36.0205 -7.58474 12.3158
HEad  -6.48201 -29.8786 42.7336
LeftShoulder1  0 -2.42657e-020 -4.95415e-022
LeftArm  2.3416 -31.4196 -104.695
LeftForeArm  32.652 -36.6123 -7.52294
LeftHand  -0.237459 -9.79542 2.40235
RightShoulder  0 2.42657e-020 1.07489e-018
RightArm  -73.053 37.3121 66.1575
RightForeArm  62.0687 2.85747 0.462894
RightHand  -0.0187347 15.215 0.229833
LeftUpLeg  -34.3955 -1.79687 -6.2419
LeftLeg  104.963 2.73574 -13.4224
LeftFoot  -6.60474 0.012304 0.213228
LeftToes  -41.4721 2.01279e-006 2.21547e-008
339
root  62.761 25.5584 -22.4929 16.2732 33.9641 14.8505
RightUpLeg  -63.562 -10.1361 13.3338
RightLeg  77.0564 -2.30392 -7.94691
RightFoot  -25.6592 0.337931 1.86138
RightToes  28.7837 0.000808227 0.278654
Spine  22.0567 -2.68725 4.98377
Spine1  35.2305 -10.5858 12.8895
HEad  -5.11623 -29.417 43.9888
LeftShoulder1  0 -2.42657e-020 -4.95415e-022
LeftArm  2.79962 -33.0744 -104.669
LeftForeArm  28.9357 -35.71 -7.27807
LeftHand  -0.0633721 -8.48081 0.485141
RightShoulder  0 2.42657e-020 1.07489e-018
RightArm  -67.3466 35.5845 71.6807
RightForeArm  61.9544 4.34149 0.724127
RightHand  0.353049 17.2401 2.69961
LeftUpLeg  -40.566 -4.94482 -4.00382
LeftLeg  106.26 1.16779 -5.18858
LeftFoot  -9.70265 -0.0573239 -0.675397
LeftToes  -31.3163 2.01279e-006 2.21547e-008
340
root  63.6572 26.5279 -21.796 14.4741 28.6697 12.4462
RightUpLeg  -58.5521 -8.95405 13.3042
RightLeg  73.5673 -1.41772 -4.08142
RightFoot  -24.4782 -0.0381883 0.201508
RightToes  28.1783 0.00204733 0.272901
Spine  21.8718 -3.8174 3.70043
Spine1  35.0495 -12.661 12.3364
HEad  -2.57501 -28.4686 42.2769
LeftShoulder1  0 -2.42657e-020 -4.95415e-022
LeftArm  0.211985 -33.8679 -103.632
LeftForeArm  28.4796 -35.4721 -7.21411
LeftHand  0.0991462 -8.94148 -1.63921
RightShoulder  0 2.42657e-020 1.07489e-018
RightArm  -63.9745 32.4671 78.4761
RightForeArm  56.1789 8.3151 1.442
RightHand  0.111205 19.8137 1.00705
LeftUpLeg  -46.1278 -8.31683 -0.218516
LeftLeg  102.883 0.259644 -1.56021
LeftFoot  -11.4107 -0.136212 -1.36332
LeftToes  -23.6565 2.01279e-006 2.21547e-008
341
root  64.4692 27.7701 -21.1755 13.3786 21.6835 10.8633
RightUpLeg  -53.1407 -6.75188 12.3756
RightLeg  68.4101 0.0879208 0.0343608
RightFoot  -21.6225 -0.343589 -1.42159
RightToes  27.7174 0.00371431 0.268511
Spine  21.368 -4.42555 2.02993
Spine1  34.8484 -13.4211 10.7447
HEad  -1.35635 -28.3179 40.0949
LeftShoulder1  0 -2.42657e-020 -4.95415e-022
LeftArm  -3.15466 -33.5898 -101.676
LeftForeArm  25.3915 -36.4921 -7.49296
LeftHand  0.380461 -8.32447 -5.59906
RightShoulder  0 2.42657e-020 1.07489e-018
RightArm  -57.6489 28.2497 83.4628
RightForeArm  49.1557 11.4194 2.01664
RightHand  -0.572316 20.3903 -2.81241
LeftUpLeg  -49.7001 -10.8454 2.93
LeftLeg  95.0358 0.0189722 -0.512383
LeftFoot  -13.2041 -0.164405 -1.4204
LeftToes  -18.6278 2.01279e-006 2.21547e-008
342
root  65.279 29.093 -20.5558 12.6227 14.3614 9.95388
RightUpLeg  -48.1286 -4.7689 10.9841
RightLeg  63.256 2.20798 3.64571
RightFoot  -17.4282 -0.446431 -2.53458
RightToes  27.0135 0.00552659 0.26179
Spine  20.3542 -4.68561 0.390877
Spine1  34.1356 -13.1318 8.22508
HEad  -1.57223 -29.7091 38.6223
LeftShoulder1  0 -2.42657e-020 -4.95415e-022
LeftArm  -5.07501 -31.3124 -98.4124
LeftForeArm  24.9238 -39.3187 -8.30494
LeftHand  0.644192 -8.45612 -9.07449
RightShoulder  0 2.42657e-020 1.07489e-018
RightArm  -53.6885 23.7399 86.5024
RightForeArm  45.0999 12.8461 2.28536
RightHand  -1.02419 20.4626 -5.30154
LeftUpLeg  -51.1126 -13.4421 5.5652
LeftLeg  83.7977 -0.0389603 -0.263165
LeftFoot  -13.3552 -0.143896 -1.22904
LeftToes  -19.3432 2.01279e-006 2.21547e-008
